<svg width="1729" height="78" viewBox="0 0 1729 78" fill="none" xmlns="http://www.w3.org/2000/svg">
<g clip-path="url(#clip0_1_49)">
<path d="M1083.4 32.6227C1083.89 35.0804 1083.96 43.3121 1083.51 46.7804C1082.95 46.8736 1082.34 47.0355 1081.72 47.0698C1080.75 47.1189 1079.76 47.0845 1078.78 47.0845H650.084C648.573 47.0845 647.068 47.06 645.498 47.0453C644.802 45.2891 645.14 43.6506 645.086 42.0611C645.032 40.5404 645.052 39.0147 645.081 37.4891C645.111 35.8849 644.934 34.2611 645.258 32.6913C645.729 32.5294 646.028 32.3381 646.327 32.3381C791.73 32.3234 937.137 32.3234 1082.54 32.3381C1082.84 32.3381 1083.14 32.5294 1083.4 32.6227Z" fill="black"/>
<path d="M1651.22 0.313998C1654.47 -0.0784544 1668.29 -0.0343035 1671.02 0.377772C1671.55 1.33438 1671.32 2.43815 1671.32 3.49287C1671.33 10.7827 1671.33 18.0774 1671.33 25.3672C1671.33 26.4367 1671.43 27.5012 1671.48 28.7276C1672.25 28.8404 1672.85 29.0072 1673.48 29.0121C1684.38 29.0268 1695.27 29.0268 1706.16 29.0121C1706.7 29.0121 1707.24 28.8944 1707.69 28.8355C1708.44 27.8985 1708.2 26.8782 1708.2 25.9314C1708.23 18.6416 1708.21 11.3468 1708.21 4.05702C1708.21 2.87475 1708.26 1.69249 1708.3 0.407206C1710.57 -0.245247 1712.74 0.127583 1714.87 0.0638098C1717.16 -0.00486954 1719.45 0.0392814 1721.74 0.0490928C1723.89 0.0638098 1726.05 0.0981494 1728.34 0.127583C1728.46 0.843809 1728.6 1.354 1728.6 1.86909C1728.62 18.411 1728.6 34.9529 1728.59 51.4947C1728.59 51.6026 1728.55 51.7106 1728.49 52.054C1727.56 53.1725 1726.05 53.8593 1724.75 54.806C1723.42 55.7676 1722.05 56.6506 1720.71 57.5679C1719.44 58.4215 1718.17 59.28 1716.92 60.1385C1715.58 61.0559 1714.22 61.9732 1712.86 62.8857C1711.54 63.7785 1710.26 64.7547 1708.89 65.4759C1708.01 64.7302 1708.24 63.9306 1708.24 63.2192C1708.22 58.2106 1708.24 53.2068 1708.22 48.1982C1708.22 47.1287 1708.14 46.0593 1708.08 44.7936C1703.96 44.3325 1699.95 44.6269 1695.96 44.5729C1691.94 44.5189 1687.9 44.5631 1683.86 44.5631H1671.96C1671.06 45.7453 1671.35 46.8736 1671.35 47.9284C1671.32 56.5279 1671.34 65.1227 1671.32 73.7223C1671.32 74.8996 1671.5 76.1015 1670.99 77.3377C1670.45 77.426 1669.91 77.583 1669.39 77.583C1663.61 77.583 1657.84 77.5585 1652.07 77.5193C1651.78 77.5193 1651.48 77.2936 1651.2 77.1857C1650.81 74.4876 1650.81 3.434 1651.22 0.309093H1651.22V0.313998Z" fill="black"/>
<path d="M1374.63 77.2347C1374.56 76.5283 1374.44 75.8955 1374.43 75.2676C1374.05 60.2317 1374.26 3.80681 1374.73 0.318883C1375.5 0.235487 1376.32 0.0736001 1377.14 0.0686944C1382.59 0.0441659 1388.04 0.0588831 1393.49 0.0588831H1438.26C1439.44 0.0588831 1440.61 0.10794 1441.73 0.132468C1442.34 2.71775 1442.39 12.3328 1441.82 15.3057C1438.86 15.8502 1435.82 15.497 1432.79 15.5559C1429.64 15.6196 1426.48 15.5706 1423.32 15.5706H1395.49C1395.29 16.0857 1395.02 16.4683 1395.01 16.8559C1394.99 21.6438 1395.01 26.4317 1395.03 31.2147C1395.03 31.4159 1395.15 31.617 1395.26 31.9457C1396.28 32.5687 1397.51 32.2744 1398.67 32.2793C1409.01 32.3038 1419.36 32.294 1429.71 32.2989C1430.9 32.2989 1432.08 32.3577 1433.38 32.397C1434.02 34.0944 1433.68 35.7279 1433.74 37.3174C1433.79 38.8381 1433.79 40.3638 1433.74 41.8845C1433.69 43.4838 1433.97 45.1125 1433.45 46.8491C1429.14 47.2366 1424.91 46.9766 1420.69 47.0257C1416.55 47.0747 1412.41 47.0355 1408.27 47.0355H1395.71C1394.67 47.9725 1394.97 49.0125 1394.97 49.9445C1394.94 57.7789 1394.95 65.6132 1394.95 73.4525V77.0532C1394.38 77.274 1394 77.5536 1393.6 77.5536C1387.61 77.5781 1381.62 77.5683 1375.63 77.5536C1375.43 77.5536 1375.22 77.426 1374.64 77.2347H1374.63Z" fill="black"/>
<path d="M235.37 0.0588607C257.309 0.0588607 279.097 0.0588607 300.885 0.0686721C301.405 0.0686721 301.925 0.201125 302.396 0.264898C302.906 2.6932 303.009 11.2143 302.597 15.0113C301.577 15.8992 300.326 15.546 299.168 15.5509C287.833 15.5755 276.498 15.5657 265.162 15.5657C262.764 15.5657 260.365 15.546 257.967 15.5804C257.236 15.5902 256.505 15.7521 255.828 15.8404C255.298 18.5875 255.284 29.1004 255.794 31.9702C256.868 32.5098 258.08 32.2792 259.247 32.2792C269.601 32.2989 279.956 32.2891 290.31 32.294C291.492 32.294 292.674 32.3381 293.999 32.3626C294.72 34.8596 294.273 37.2487 294.357 39.5936C294.435 41.8698 294.371 44.1558 294.371 46.2702C293.297 47.3543 292.144 47.0109 291.1 47.0158C282.271 47.0404 273.442 47.0306 264.613 47.0306C262.435 47.0306 260.252 47.0158 258.075 47.0404C257.329 47.0502 256.588 47.163 255.912 47.2219C255.186 48.3404 255.446 49.454 255.441 50.5185C255.416 58.3577 255.441 66.197 255.416 74.0362C255.416 75.1057 255.642 76.2143 255.019 77.3279C254.661 77.4064 254.249 77.5781 253.832 77.5781C247.946 77.5781 242.06 77.5634 236.179 77.5291C235.88 77.5291 235.585 77.3083 235.311 77.1955C234.908 74.4679 234.904 3.37509 235.365 0.0539551L235.37 0.0588607Z" fill="black"/>
<path d="M1139.45 0.0686951C1161.75 0.0686951 1183.62 0.0686951 1205.5 0.0785064C1205.91 0.0785064 1206.32 0.230582 1206.68 0.304167C1207.15 2.97284 1207.2 11.9551 1206.77 15.026C1205.99 15.8404 1204.95 15.551 1204.02 15.5559C1198.36 15.5853 1192.69 15.5706 1187.03 15.5706H1163.83C1162.64 15.5706 1161.46 15.6147 1160.25 15.6393C1159.4 17.5623 1159.87 19.4264 1159.79 21.2317C1159.71 22.9683 1159.74 24.7147 1159.78 26.4513C1159.82 28.2713 1159.6 30.1159 1159.97 31.9457C1161.25 32.4755 1162.46 32.2793 1163.62 32.2842C1173.97 32.3038 1184.32 32.2842 1194.67 32.3087C1195.85 32.3087 1197.05 32.083 1198.17 32.5638C1198.86 35.0706 1198.86 44.2687 1198.16 46.8589C1195.07 47.2317 1191.92 46.9864 1188.78 47.0306C1185.51 47.0747 1182.24 47.0404 1178.97 47.0404C1175.7 47.0404 1172.65 47.006 1169.5 47.0502C1166.37 47.0894 1163.23 46.8589 1159.93 47.2366C1159.62 49.8857 1159.81 52.3728 1159.77 54.8502C1159.74 57.3521 1159.76 59.854 1159.76 62.3559V77.0925C1159.23 77.2936 1158.85 77.5585 1158.46 77.5585C1152.48 77.5732 1146.49 77.5585 1140.5 77.534C1140.3 77.534 1140.1 77.3966 1139.64 77.2347C1139.57 76.754 1139.43 76.1506 1139.4 75.5423C1139.35 74.566 1139.38 73.5849 1139.38 72.6038V4.38567C1139.38 3.09548 1139.42 1.8053 1139.45 0.0686951H1139.45Z" fill="black"/>
<path d="M503.799 0.372833C506.742 -0.0147137 522.933 -0.0981101 527.661 0.206041C528.201 1.04982 528.858 2.02604 529.457 3.0317C534.798 12.014 540.125 21.0011 545.461 29.9834C545.996 30.8861 546.59 31.7544 547.345 32.9415C550.837 27.2706 553.937 21.791 557.14 16.3751C560.294 11.0378 563.418 5.68077 566.494 0.431701C569.049 -0.0343363 583.774 -0.161884 588.708 0.230569C588.478 0.843778 588.375 1.46189 588.051 1.93283C584.951 6.53926 581.812 11.1162 578.683 15.703C571.875 25.6811 565.091 35.6838 558.219 45.6227C557.111 47.2268 556.61 48.8113 556.635 50.7589C556.718 58.4853 556.674 66.2166 556.664 73.943C556.664 75.0125 556.605 76.0819 556.571 77.1121C556.1 77.3034 555.801 77.5242 555.502 77.5242C549.621 77.5585 543.74 77.5781 537.854 77.5732C537.437 77.5732 537.025 77.4015 536.667 77.323C536.034 76.2144 536.265 75.1008 536.265 74.0362C536.245 66.3098 536.201 58.5785 536.289 50.8521C536.314 48.8947 535.789 47.3151 534.685 45.7159C525.067 31.72 515.512 17.6849 505.942 3.65472C505.28 2.67849 504.652 1.67774 503.789 0.363022L503.799 0.372833Z" fill="black"/>
<path d="M1533.34 15.7472C1531.88 15.6736 1530.82 15.5755 1529.76 15.5706C1523.12 15.5558 1516.48 15.5706 1509.84 15.5558C1508.77 15.5558 1507.66 15.7226 1506.68 15.2468C1506.23 12.8381 1506.14 4.46417 1506.53 0.402282C1507.07 0.294358 1507.68 0.137377 1508.29 0.0686973C1508.83 0.00982925 1509.38 0.0539803 1509.92 0.0539803H1577.23C1578.29 0.0539803 1579.37 0.117754 1580.4 0.147188C1581.02 2.44304 1581.13 11.6509 1580.61 15.134C1579.64 15.8109 1578.52 15.5509 1577.46 15.5509C1570.92 15.5755 1564.39 15.5509 1557.85 15.5706C1556.67 15.5706 1555.5 15.6392 1554.42 15.6736C1553.62 16.8411 1553.89 17.9596 1553.89 19.0094C1553.86 26.0785 1553.88 33.1525 1553.88 40.2215V73.5064C1553.88 74.6887 1553.84 75.8709 1553.81 77.1758C1553.04 77.3426 1552.43 77.583 1551.82 77.583C1546.26 77.6124 1540.7 77.6026 1535.16 77.583C1534.73 77.583 1534.31 77.4604 1533.72 77.3672C1533.59 76.7441 1533.39 76.1408 1533.38 75.5275C1533.31 74.0068 1533.34 72.4811 1533.34 70.9604V15.7472Z" fill="black"/>
<path d="M413.974 77.3279C413.577 77.4162 413.16 77.583 412.748 77.583C406.867 77.583 400.991 77.5683 395.11 77.5339C394.81 77.5339 394.516 77.3132 393.996 77.1071C393.977 74.5709 393.952 71.9807 393.942 69.3905C393.932 66.8887 393.942 64.3868 393.942 61.8849V31.2098C393.942 28.6 393.962 25.9902 393.937 23.3755C393.918 20.903 394.05 18.4158 393.81 15.7472C392.539 15.6785 391.48 15.5804 390.42 15.5755C383.779 15.5607 377.133 15.5755 370.492 15.5607C369.427 15.5607 368.363 15.4724 367.357 15.4283C366.837 12.9117 366.72 5.2147 367.102 0.426801C367.656 0.309065 368.255 0.132461 368.868 0.0686879C369.515 0.00491404 370.173 0.0490652 370.825 0.0490652H441.103C441.864 2.68831 441.442 5.18527 441.506 7.643C441.569 10.1253 441.486 12.6075 441.466 14.923C440.27 15.8207 439.141 15.546 438.082 15.5509C431.441 15.5755 424.794 15.5607 418.153 15.5706C417.074 15.5706 416 15.6343 414.774 15.6736C414.617 16.3947 414.415 16.9932 414.371 17.6015C414.308 18.5777 414.347 19.5589 414.347 20.5351C414.347 38.1562 414.352 55.7822 414.332 73.4034C414.332 74.6838 414.592 76.0034 413.964 77.3279H413.974Z" fill="black"/>
<path d="M1277.33 77.5291C1276.86 74.2913 1276.87 3.29659 1277.31 0.309043C1280.57 -0.260014 1283.92 0.14225 1287.24 0.0686656C1290.5 -0.0049196 1293.76 0.0539486 1296.87 0.0539486C1297.83 1.34904 1297.48 2.59017 1297.49 3.743C1297.52 13.314 1297.51 22.88 1297.51 32.451V73.5555C1297.51 74.7328 1297.47 75.9102 1297.44 77.1464C1295.14 77.9706 1292.96 77.5192 1290.83 77.5928C1288.54 77.6713 1286.26 77.6223 1283.97 77.6076C1281.81 77.5928 1279.66 77.5536 1277.33 77.5242H1277.33V77.5291Z" fill="black"/>
<path d="M20.2035 22.2472C20.645 25.6615 20.1741 28.7913 20.5224 31.9408C21.7878 32.4755 22.9945 32.2793 24.1569 32.2842C34.5064 32.3038 44.8559 32.2891 55.2103 32.2989C56.3875 32.2989 57.5646 32.3725 58.6732 32.4117C59.2814 34.8106 59.404 42.6449 58.938 46.5547C57.9129 47.3985 56.6621 47.011 55.5144 47.0159C45.1649 47.0502 34.8154 47.0355 24.461 47.0355H21.0815C20.1398 48.0804 20.4193 49.1057 20.4144 50.0476C20.3899 57.8819 20.3997 65.7212 20.3997 73.5555V77.1808C19.6836 77.3525 19.1735 77.5536 18.6536 77.588C14.0674 77.8774 2.56036 77.6566 0.269739 77.2396C0.186354 76.7834 0.0097753 76.2683 0.0097753 75.7532C-0.0049396 62.8023 -3.46297e-05 49.8513 0.0097753 36.9004C0.0097753 36.5766 0.088255 36.2578 0.156924 35.7427C3.20291 33.3144 6.60697 31.1804 9.93744 28.9483C13.2385 26.7359 16.3728 24.2585 20.2084 22.2521L20.2035 22.2472Z" fill="black"/>
<path d="M137.888 0.299219C141.346 -0.093234 155.046 -0.0245545 157.567 0.377709C157.646 0.451294 157.749 0.510161 157.803 0.598463C157.857 0.686765 157.871 0.8045 157.876 0.912425C157.915 1.78073 157.984 2.64903 157.979 3.51733C157.969 27.7906 157.955 52.0638 157.93 76.3419C157.93 76.5479 157.832 76.7589 157.758 76.96C157.724 77.0581 157.651 77.1415 157.513 77.3672C157.091 77.4359 156.567 77.5928 156.042 77.5928C150.269 77.5928 144.491 77.5683 138.717 77.5291C138.418 77.5291 138.124 77.3034 137.849 77.1906C137.457 74.4189 137.462 3.33582 137.879 0.299219H137.888Z" fill="black"/>
<path d="M67.2275 0.0588839C67.7032 2.95322 67.7621 11.8031 67.3648 15.2272C66.7026 15.3351 65.9816 15.5461 65.2655 15.5461C54.2587 15.5657 43.252 15.5607 32.2452 15.5558C31.8381 15.5558 31.4261 15.4577 31.122 15.4185C30.7345 14.7023 31.2152 14.4864 31.5389 14.2657C38.0184 9.85056 44.5028 5.44528 50.9871 1.03511C51.8062 0.475865 52.6156 0.0343554 53.6799 0.0441667C58.1435 0.0883179 62.6021 0.0637896 67.2324 0.0637896L67.2275 0.0588839Z" fill="black"/>
</g>
<defs>
<clipPath id="clip0_1_49">
<rect width="1729" height="78" fill="white"/>
</clipPath>
</defs>
</svg>
